<svg version="1.1" xmlns="http://www.w3.org/2000/svg" xmlns:xlink="http://www.w3.org/1999/xlink" x="0px" y="0px"
	 viewBox="0 0 3710 3710" style="enable-background:new 0 0 3710 3710;" xml:space="preserve">
	<style type="text/css">
		.st0{fill:#F4F7FA;}
		.st1{fill:#C9CED6;}
		.st2{fill:#D8DEE8;}
		.st3{fill:#B7C0CE;}
		.st4{clip-path:url(#SVGID_2_);fill:url(#SVGID_3_);}
		.st5{opacity:0.5;clip-path:url(#SVGID_2_);}
		.st6{fill:#BEB8F2;}
		.st7{fill:url(#SVGID_4_);}
		.st8{opacity:0.5;clip-path:url(#SVGID_6_);}
		.st9{fill:#FCFDFE;}
		.st10{fill:url(#SVGID_7_);}
		.st11{opacity:0.5;clip-path:url(#SVGID_9_);}
		.st12{fill:#97A6B7;}
		.st13{fill:url(#SVGID_10_);}
		.st14{fill:url(#SVGID_11_);}
		.st15{fill:#FFFFFF;}
		.st16{fill:url(#SVGID_12_);}
		.st17{opacity:0.54;fill:#FFFFFF;}
		.st18{fill:url(#SVGID_13_);}
		.st19{opacity:0.3;fill:url(#SVGID_14_);}
		.st20{fill:url(#SVGID_15_);}
		.st21{fill:url(#SVGID_16_);}
		.st22{fill:url(#SVGID_17_);}
		.st23{fill:url(#SVGID_18_);}
		.st24{clip-path:url(#SVGID_20_);}
		.st25{fill:url(#SVGID_21_);}
		.st26{fill:url(#SVGID_22_);}
		.st27{opacity:0.3;fill:url(#SVGID_23_);}
		.st28{clip-path:url(#SVGID_20_);fill:url(#SVGID_24_);}
		.st29{clip-path:url(#SVGID_20_);fill:url(#SVGID_25_);}
		.st30{clip-path:url(#SVGID_20_);fill:url(#SVGID_26_);}
		.st31{clip-path:url(#SVGID_20_);fill:url(#SVGID_27_);}
		.st32{clip-path:url(#SVGID_20_);fill:url(#SVGID_28_);}
		.st33{opacity:0.3;clip-path:url(#SVGID_20_);fill:url(#SVGID_29_);}
		.st34{clip-path:url(#SVGID_20_);fill:url(#SVGID_30_);}
		.st35{clip-path:url(#SVGID_20_);fill:url(#SVGID_31_);}
		.st36{fill:url(#SVGID_32_);}
		.st37{fill:url(#SVGID_33_);}
		.st38{fill:url(#SVGID_34_);}
		.st39{fill:url(#SVGID_35_);}
		.st40{fill:url(#SVGID_36_);}
		.st41{clip-path:url(#SVGID_20_);fill:url(#SVGID_37_);}
		.st42{clip-path:url(#SVGID_20_);fill:url(#SVGID_38_);}
		.st43{opacity:0.3;clip-path:url(#SVGID_20_);fill:url(#SVGID_39_);}
		.st44{fill:url(#SVGID_40_);}
		.st45{fill:url(#SVGID_41_);}
		.st46{opacity:0.8;fill:#D8DEE8;}
		.st47{fill:url(#SVGID_42_);}
		.st48{fill:url(#SVGID_43_);}
		.st49{fill:url(#SVGID_44_);}
		.st50{fill:url(#SVGID_45_);}
		.st51{fill:url(#SVGID_46_);}
		.st52{fill:url(#SVGID_47_);}
		.st53{fill:#26264F;}
		.st54{fill:url(#SVGID_48_);}
		.st55{fill:url(#SVGID_49_);}
		.st56{fill:url(#SVGID_50_);}
		.st57{fill:url(#SVGID_51_);}
		.st58{fill:url(#SVGID_52_);}
		.st59{opacity:0.3;fill:url(#SVGID_53_);}
		.st60{fill:url(#SVGID_54_);}
		.st61{fill:url(#SVGID_55_);}
		.st62{fill:url(#SVGID_56_);}
		.st63{fill:url(#SVGID_57_);}
		.st64{fill:url(#SVGID_58_);}
		.st65{opacity:0.3;fill:url(#SVGID_59_);}
		.st66{fill:url(#SVGID_60_);}
		.st67{fill:url(#SVGID_61_);}
		.st68{opacity:0.26;fill:#FFFFFF;}
		.st69{fill:url(#SVGID_62_);}
		.st70{opacity:0.48;fill:#FFFFFF;}
		.st71{fill:url(#SVGID_63_);}
		.st72{opacity:0.3;fill:#26264F;}
		.st73{fill:url(#SVGID_64_);}
		.st74{fill:url(#SVGID_65_);}
		.st75{fill:url(#SVGID_66_);}
		.st76{fill:url(#SVGID_67_);}
		.st77{fill:url(#SVGID_68_);}
		.st78{fill:url(#SVGID_69_);}
		.st79{fill:url(#SVGID_70_);}
		.st80{fill:url(#SVGID_71_);}
		.st81{opacity:0.3;fill:url(#SVGID_72_);}
		.st82{fill:url(#SVGID_73_);}
		.st83{fill:url(#SVGID_74_);}
		.st84{fill:url(#SVGID_75_);}
		.st85{fill:url(#SVGID_76_);}
		.st86{fill:url(#SVGID_77_);}
		.st87{opacity:0.3;fill:url(#SVGID_78_);}
		.st88{fill:url(#SVGID_79_);}
		.st89{fill:url(#SVGID_80_);}
	</style>
	<g id="Background">
	</g>
	<g id="Illustration">
		<g id="Online_learning_for_seniors">
			<path class="st0" d="M3007,985C2349,183.8,788.3,281.8,503.2,807.6c-119.9,221,72.9,356.8,13.5,1034.4
				c-40,455.5-144.2,588.8-46.1,756.1c184.5,314.7,802.7,268.6,1026,252c515.7-38.4,1654.1-278.3,1790.1-1004.3
				C3366.1,1422.3,3063.1,1053.4,3007,985z"/>
			<g>
				<g>
					<path class="st1" d="M3098.6,1978.6c29.3,14.9,66,1.2,82.1-30.5c16.1-31.7,5.4-69.4-23.9-84.3c-1.5-0.8-3.1-1.4-4.6-2
						c5.4-17.5,9.5-35.2,12.3-52.9c1.7,0,3.4,0,5.1-0.2c33.4-3,59.9-33.6,59.2-68.5c-0.7-34.9-28.3-60.7-61.7-57.7
						c-1.7,0.2-3.5,0.4-5.2,0.7c-3.5-17.3-8.3-34.2-14.3-50.5c1.5-0.9,3.1-1.8,4.6-2.9c28.6-20,37.7-59.5,20.4-88.2
						c-17.3-28.7-54.5-35.8-83-15.7c-1.5,1-2.8,2.1-4.2,3.3c-11.3-12.5-23.6-24-37-34.6c0.9-1.5,1.9-3.1,2.7-4.7
						c16.1-31.7,37.1-66.3,7.6-80.7c-68.2-33.3-97.5-4.8-113.6,26.9c-0.8,1.6-1.6,3.3-2.2,5c-16.4-4.6-33-7.8-49.8-9.5
						c0.1-1.8,0.2-3.5,0.1-5.3c-0.7-34.9,9.6-53.7-23.9-54.4c-73.1-1.4-97.7,30.3-97,65.2c0,1.8,0.2,3.6,0.4,5.4
						c-16.7,4.8-33.2,10.9-49.2,18.3c-0.8-1.6-1.6-3.1-2.5-4.6c-17.3-28.7-54.5-35.8-83-15.7c-28.6,20-37.7,59.5-20.4,88.2
						c0.9,1.5,1.9,2.8,2.8,4.2c-12.6,12.6-24.5,26.4-35.4,41.1c-1.4-0.9-2.8-1.8-4.4-2.5c-29.3-14.9-66-1.2-82.1,30.5
						c-16.1,31.7-5.4,69.4,23.9,84.3c1.5,0.8,3.1,1.4,4.6,2c-5.4,17.5-9.5,35.2-12.3,52.9c-1.7,0-3.4,0-5.1,0.2
						c-33.4,3-59.9,33.6-59.2,68.5c0.7,34.9,28.3,60.7,61.7,57.7c1.7-0.2,3.5-0.4,5.2-0.7c3.5,17.3,8.3,34.2,14.3,50.5
						c-1.5,0.9-3.1,1.8-4.6,2.9c-28.6,20-37.7,59.5-20.4,88.2c17.3,28.7,74.6,42,103.1,22c1.5-1-17.2-8.4-15.9-9.5
						c11.3,12.5,23.7,24,37,34.6c-0.9,1.5-1.9,3.1-2.7,4.7c-16.1,31.7-5.4,69.4,23.9,84.3c29.3,14.9,66,1.2,82.1-30.5
						c0.8-1.6,1.6-3.3,2.2-5c16.4,4.6,33,7.8,49.8,9.5c-0.1,1.8-0.2,3.5-0.1,5.3c0.7,34.9,28.3,60.7,61.7,57.7
						c33.4-3,59.9-33.6,59.2-68.5c0-1.8-0.2-3.6-0.4-5.4c16.7-4.8,33.2-10.9,49.2-18.3c0.8,1.6,1.6,3.1,2.5,4.6
						c17.3,28.7,54.5,35.8,83,15.7c28.6-20,37.7-59.5,20.4-88.2c-0.9-1.5-1.9-2.8-2.8-4.2c12.6-12.6,24.5-26.4,35.4-41.1
						C3095.7,1977,3097.1,1977.8,3098.6,1978.6z M2733.9,1983.2c-106.2-53.9-145-190.9-86.6-305.9c58.4-115,191.8-164.5,298.1-110.6
						c106.2,53.9,145,190.9,86.6,305.9C2973.6,1987.7,2840.2,2037.2,2733.9,1983.2z"/>
					<path class="st2" d="M3169.6,1808.8c33.4-3,59.9-33.6,59.2-68.5c-0.7-34.9-28.3-60.7-61.7-57.7c-1.7,0.2-3.5,0.4-5.2,0.7
						c-3.5-17.3-8.3-34.2-14.3-50.5c1.5-0.9,3.1-1.8,4.6-2.9c28.6-20,63.9-68.3,43.7-95.1c-38.2-50.8-77.8-28.8-106.4-8.8
						c-1.5,1-2.8,2.1-4.2,3.3c-11.3-12.5-23.6-24-37-34.6c0.9-1.5,1.9-3.1,2.7-4.7c8.8-17.2,9.5-36.2,3.7-52.4
						c-27.6,48.5-54.8,97.3-81.5,146.3c84.7,62.1,111.7,184.5,58.8,288.8c-44.9,88.4-134.1,138-221.2,131.8
						c-3.9,10.1-7.7,20.2-11.9,30.2c-11.3,27.1-24.1,53.6-37,80.1c8.1,1.5,16.2,2.7,24.3,3.6c-0.1,1.8-0.2,3.5-0.2,5.3
						c0.7,34.9,21.9,64.5,82.4,61.3c33.5-1.8,39.2-37.2,38.5-72c0-1.8-0.2-3.6-0.4-5.4c16.7-4.8,33.2-10.9,49.2-18.3
						c0.8,1.6,1.6,3.1,2.5,4.6c17.3,28.7,77.3,40.9,105.8,20.9c28.6-20,14.9-64.6-2.4-93.3c-0.9-1.5-1.9-2.8-2.8-4.2
						c12.6-12.6,24.5-26.4,35.4-41.1c1.4,0.9,2.9,1.8,4.4,2.5c29.3,14.9,66,1.2,82.1-30.5c16.1-31.7,5.4-69.4-23.9-84.3
						c-1.5-0.8-3.1-1.4-4.6-2c5.4-17.5,9.5-35.2,12.3-52.9C3166.2,1809,3167.9,1809,3169.6,1808.8z"/>
					<path class="st3" d="M3130.1,1982.2c29.3,14.9,66,1.2,82.1-30.5c16.1-31.7,5.4-69.4-23.9-84.3c-1.5-0.8-3.1-1.4-4.6-2
						c5.4-17.5,9.5-35.2,12.3-52.9c1.7,0,3.4,0,5.1-0.2c33.4-3,59.9-33.6,59.2-68.5c-0.7-34.9-28.3-60.7-61.7-57.7
						c-1.7,0.2-3.5,0.4-5.2,0.7c-3.5-17.3-8.3-34.2-14.3-50.5c1.5-0.9,3.1-1.8,4.6-2.9c28.6-20,37.7-59.5,20.4-88.2
						c-17.3-28.7-54.5-35.8-83-15.7c-1.5,1-2.8,2.1-4.2,3.3c-11.3-12.5-23.7-24-37-34.6c0.9-1.5,1.9-3.1,2.7-4.7
						c16.1-31.7,5.4-69.4-23.9-84.3c-29.3-14.9-66-1.2-82.1,30.5c-0.8,1.6-1.6,3.3-2.2,5c-16.4-4.6-33-7.8-49.8-9.5
						c0.1-1.8,0.2-3.5,0.2-5.3c-0.7-34.9-28.3-60.7-61.7-57.7c-33.4,3-59.9,33.6-59.2,68.5c0,1.8,0.2,3.6,0.4,5.4
						c-16.7,4.8-33.2,10.9-49.2,18.3c-0.8-1.6-1.6-3.1-2.5-4.6c-17.3-28.7-54.5-35.8-83-15.7c-28.6,20-37.7,59.5-20.4,88.2
						c0.9,1.5,1.9,2.8,2.8,4.2c-12.6,12.6-24.5,26.4-35.4,41.1c-1.4-0.9-2.9-1.8-4.4-2.5c-29.3-14.9-66-1.2-82.1,30.5
						c-16.1,31.7-5.4,69.4,23.9,84.3c1.5,0.8,3.1,1.4,4.6,2c-5.4,17.5-9.5,35.2-12.3,52.9c-1.7,0-3.4,0-5.1,0.2
						c-33.4,3-59.9,33.6-59.2,68.5c0.7,34.9,28.3,60.7,61.7,57.7c1.7-0.2,3.5-0.4,5.2-0.7c3.5,17.3,8.3,34.2,14.3,50.5
						c-1.5,0.9-3.1,1.8-4.6,2.9c-28.6,20-37.7,59.5-20.4,88.2c17.3,28.7,54.5,35.8,83,15.7c1.5-1,2.8-2.1,4.2-3.3
						c11.3,12.5,23.6,24,37,34.6c-0.9,1.5-1.9,3.1-2.7,4.7c-16.1,31.7-5.4,69.4,23.9,84.3c29.3,14.9,66,1.2,82.1-30.5
						c0.8-1.6,1.6-3.3,2.2-5c16.4,4.6,33,7.8,49.8,9.5c-0.1,1.8-0.2,3.5-0.2,5.3c0.7,34.9,28.3,60.7,61.7,57.7
						c33.4-3,59.9-33.6,59.2-68.5c0-1.8-0.2-3.6-0.4-5.4c16.7-4.8,33.2-10.9,49.2-18.3c0.8,1.6,1.6,3.1,2.5,4.6
						c17.3,28.7,54.5,35.8,83,15.7c28.6-20,37.7-59.5,20.4-88.2c-0.9-1.5-1.9-2.8-2.8-4.2c12.6-12.6,24.5-26.4,35.4-41.1
						C3127.2,1980.6,3128.6,1981.4,3130.1,1982.2z M2765.4,1986.8c-106.2-53.9-145-190.9-86.6-305.9
						c58.4-115,191.8-164.5,298.1-110.6c106.2,53.9,145,190.9,86.6,305.9C3005.1,1991.2,2871.6,2040.8,2765.4,1986.8z"/>
				</g>
				<g>
					<g>
						<defs>
							<path id="SVGID_1_" d="M2088.2,2217.3l237.8-172c0,0-43.5-154.3-164-198.3c-245.9-89.6-150.2-298.7-123.3-392.3
								c40.7-141.1,15-283.2-156-229.5c-171,53.7-187-260-88.5-478.4c96.4-213.8-227.9-508.5-479.1-65
								c-150,264.9,57.1,477.2,136.2,609.3s-98.3,276.1,74.7,382.1c147.8,90.6,318.9,110.9,305,256.7S1881.3,2181.7,2088.2,2217.3z"
								/>
						</defs>
						<clipPath id="SVGID_2_">
							<use xlink:href="#SVGID_1_"  style="overflow:visible;"/>
						</clipPath>
						
							<linearGradient id="SVGID_3_" gradientUnits="userSpaceOnUse" x1="3503.9753" y1="-786.5099" x2="2919.8269" y2="873.703" gradientTransform="matrix(0.8103 -0.586 0.586 0.8103 -870.2359 3219.835)">
							<stop  offset="3.597120e-03" style="stop-color:#E38DDD"/>
							<stop  offset="1" style="stop-color:#9571F6"/>
						</linearGradient>
						<path class="st4" d="M2088.2,2217.3l237.8-172c0,0-43.5-154.3-164-198.3c-245.9-89.6-150.2-298.7-123.3-392.3
							c40.7-141.1,13.4-265.7-143.7-245.7c-177.8,22.7-199.3-243.7-100.8-462.2c96.4-213.8-227.9-508.5-479.1-65
							c-150,264.9,57.1,477.2,136.2,609.3s-98.3,276.1,74.7,382.1c147.8,90.6,318.9,110.9,305,256.7S1881.3,2181.7,2088.2,2217.3z"/>
						<g class="st5">
							<path class="st6" d="M2207,2165l4.3-4.5c-2.8-2.7-279.4-269.2-473.9-616.1c-179.2-319.6-323.4-774.8,7.4-1128.4l-4.5-4.2
								c-147.2,157.4-214.2,347.7-199.1,565.5c12.1,174,76.3,365.9,190.9,570.3C1927.1,1895.2,2204.2,2162.3,2207,2165z"/>
							<path class="st6" d="M1551.4,1068l4.5-4.2c-140.5-150.9-247.7-432-248.8-434.8l-5.8,2.2
								C1302.5,633.9,1410.1,916.2,1551.4,1068z"/>
							<path class="st6" d="M1545.4,922.5c92.8-227.5,287.2-291.1,289.2-291.8l-1.9-5.9c-2,0.6-199.1,65.1-293,295.3L1545.4,922.5z"
								/>
							<path class="st6" d="M1877,1764.2c-115-277.2,164.8-568.1,167.8-570.7l-3.8-4.9c-3.2,2.3-285.8,298.2-169.8,577.9L1877,1764.2
								z"/>
							<path class="st6" d="M1802.9,1665.1l4.2-4.6c-141.5-129.1-381.9-114.4-384.3-114.3l0.4,6.2
								C1425.5,1552.2,1663.4,1537.8,1802.9,1665.1z"/>
							<path class="st6" d="M2168.7,2117.6c-59.4-97.3,19.4-265.4,20.2-267.1l-5.6-2.7c-3.3,7-81,172.7-19.9,273L2168.7,2117.6z"/>
							<path class="st6" d="M2102.4,2055.3l4.3-4.4c-64.4-63.1-231.2-64.6-286.1-65.1c-7.7-0.1-14.4-0.1-15.6-0.4l-1.3,6
								c1.7,0.4,6.1,0.4,16.9,0.5C1874.8,1992.5,2039.8,1994,2102.4,2055.3z"/>
						</g>
					</g>
					<g>
						
							<linearGradient id="SVGID_4_" gradientUnits="userSpaceOnUse" x1="-1498.406" y1="-646.1899" x2="-658.3752" y2="1561.0627" gradientTransform="matrix(-0.6023 0.7982 0.7982 0.6023 64.7755 2353.8584)">
							<stop  offset="0" style="stop-color:#FFC444"/>
							<stop  offset="0.9964" style="stop-color:#F36F56"/>
						</linearGradient>
						<path class="st7" d="M1589.9,2040.9c90.1,10,136.5,84.6,161.6,143.9c-4.8,7.2-5.8,12.6-9,21c-29.3,75.5-57.9,101.4-98.5,171.2
							c-8.7,15-47.8,51.3-64.7,65.1l-32,25.2c0,0-202.9-48.3-188.3-166.1c14.6-117.8-172.3-188.1-266.8-237.5
							c-58-30.4-74.8-62.8-94.3-77.4C791.3,1832,685,1854.9,648.6,1763.4c-40.1-100.9,78-157.7,40.1-269.8
							C646,1367.1,466.7,1354.4,453,1225.5c-2.3-22.1-4.2-44.9,4.5-73.2c21.5-69.9,87-95,66.3-168.6C482.3,835.8,540,675.4,697.4,658
							c155.3-17.2,288.7,208.7,283.9,556c24.7,247.4,63.2,275.5,169.7,325c74.6,34.7,299.7,79.3,304.7,222.9
							C1460.6,1905.4,1487,2029.4,1589.9,2040.9z"/>
						<g>
							<defs>
								<path id="SVGID_5_" d="M1778.1,2262.7l-221.2,203c0,0-212.5-46.7-198-164.5c14.6-117.8-172.3-188.1-266.8-237.5
									c-256.2-134.1-47.2-396.6-360.7-596.5C648.2,1414,469.3,1342,453,1225.5c-18.6-132.7,97.4-147.2,70.9-241.8
									C482.3,835.8,540,675.4,697.4,658c155.3-17.2,288.7,208.7,283.9,556c24.7,247.4,63.2,275.5,169.7,325
									c74.6,34.7,299.7,79.3,304.7,222.9s31.3,267.6,134.2,279C1746.6,2058.3,1778.1,2262.7,1778.1,2262.7z"/>
							</defs>
							<clipPath id="SVGID_6_">
								<use xlink:href="#SVGID_5_"  style="overflow:visible;"/>
							</clipPath>
							<g class="st8">
								<path class="st9" d="M1670.1,2343.8l-3.9,4.5c-25.1-21.2-50.2-42.9-74.5-64.5c-179.8-159.9-336.9-332.1-466.9-511.8
									c-110.2-152.2-202.4-311.9-274.3-474.7c-57.8-130.9-102.8-264.4-133.6-397c-21.7-93.2-36.3-184.8-43.3-272.5
									c-1.2-15.3-1.6-31-2-46.3c-0.5-20.3-1-41.3-3.5-61.3l5.7-1.1c2.5,20.3,3.1,41.4,3.6,61.9c0.4,15.2,0.8,30.8,2,46
									c7,87.4,21.5,178.8,43.2,271.7c30.8,132.2,75.6,265.4,133.3,396c71.7,162.4,163.8,321.8,273.8,473.7
									c129.8,179.4,286.6,351.3,466.2,511C1620,2300.9,1645,2322.6,1670.1,2343.8z"/>
								<path class="st9" d="M951.7,1488.4l-5,3.2c-120.6-205.1-508.7-339.4-512.6-340.7l2.2-5.5
									C440.2,1146.7,830.1,1281.7,951.7,1488.4z"/>
								<path class="st9" d="M1341.6,2028.4l-4.6,3.7c-99-128.5-25.8-448.9-25.1-452.2l5.6,0.9
									C1316.7,1584.1,1244.2,1901.9,1341.6,2028.4z"/>
								<path class="st9" d="M1404.5,2095.9l-4,4.4c-79.3-69.9-228.1-119.7-418.9-140.3c-9.6-1-9.6-1-10.4-1.7l3.9-4.5l-2,2.2l1-2.7
									c0.6,0.1,4.2,0.5,8.4,1C1174.6,1975.1,1324.3,2025.3,1404.5,2095.9z"/>
								<path class="st9" d="M1624.9,2304.4l-5,3.2c-59.8-100.6,6.1-272.6,6.8-274.3l5.3,1.7
									C1631.3,2036.7,1566.5,2206.1,1624.9,2304.4z"/>
								<path class="st9" d="M1665.4,2351.4c-90-30.7-193.7-35.8-317.2-15.5l-0.5-5.7c124.4-20.5,229-15.3,319.9,15.7L1665.4,2351.4z
									"/>
								<path class="st9" d="M742,976.3l-5.1,2.9C676.4,861,584.5,752.9,554.3,717.4c-7.3-8.6-9.9-11.6-10.6-12.9l5-3.1
									c0.5,0.9,4.7,5.8,10,12.1C589,749.1,681.3,857.5,742,976.3z"/>
								<path class="st9" d="M810.6,1185.4l-5.7,1.3c-20.2-125.3,131.2-344.4,137.7-353.6l4.6,3
									C945.7,838.4,790.8,1062.4,810.6,1185.4z"/>
							</g>
						</g>
					</g>
					<g>
						
							<linearGradient id="SVGID_7_" gradientUnits="userSpaceOnUse" x1="4406.4048" y1="-1240.4291" x2="5234.8066" y2="123.3342" gradientTransform="matrix(-0.5322 0.8466 0.8466 0.5322 4308.2866 -2451.8408)">
							<stop  offset="0" style="stop-color:#FF9085"/>
							<stop  offset="1" style="stop-color:#FB6FBB"/>
						</linearGradient>
						<path class="st10" d="M1899.7,1891.3c-9.6,11.7-65.6-44.3-172.4-59.9c-26.7-3.9-170.8-35.3-233,56.5
							c-12.1,17.8-24.2,35.6-36.2,53.5c-50.8-10-96.8-28.8-77.8-93.9c29.5-101.2-113.8-191.1-179.8-198.5
							c-81.7-9.2-271.2-34.7-228-191.6c36-130.7,85.2-209.1-45.6-299.2C796.2,1068,760.3,939,849.3,814.9
							c93.6-130.5-8.8-346.5,118.5-422.6c221.9-132.7,410.6,224.3,349.4,512.5c-61.2,288.2,104.5,202.2,219.5,263.3
							c10.3,6.3,25.9,16.8,41.9,32.7c98.6,97.9,43.2,230.2,83.5,374.9C1717,1773,1915.8,1871.7,1899.7,1891.3z"/>
						<g>
							<defs>
								<path id="SVGID_8_" d="M1684.6,1656.8l-187.7,294.3c-50.6-7.4-137.9-30.9-116.6-103.6c29.5-101.2-113.8-191.1-179.8-198.5
									c-81.7-9.2-271.2-34.7-228-191.6c36-130.7,85.2-209.1-45.6-299.2C796.2,1068,760.3,939,849.3,814.9
									c93.6-130.5-8.8-346.5,118.5-422.6c221.9-132.7,410.6,224.3,349.4,512.5c-61.2,288.2,104.5,202.2,219.5,263.3
									c156.9,83.4-10.2,278.5,13.8,371.3C1569.2,1612.3,1638.7,1643.1,1684.6,1656.8z"/>
							</defs>
							<clipPath id="SVGID_9_">
								<use xlink:href="#SVGID_8_"  style="overflow:visible;"/>
							</clipPath>
							<g class="st11">
								<path class="st9" d="M1552.1,1768l-5.2,5.5c-378.6-360-572.1-914.4-504.9-1447l7.3,0.5
									C982.4,857.4,1175.1,1409.6,1552.1,1768z"/>
								<path class="st9" d="M1363.3,1552.9l-4,6.4c-175.2-107.3-411.1-33.7-413.4-32.9l-1.8-7.1
									C946.4,1518.6,1185.4,1443.9,1363.3,1552.9z"/>
								<path class="st9" d="M1484.4,1699.8l-6.5,3.9c-100.4-184.2,91.3-536.2,93.3-539.7l6.3,3.3
									C1575.6,1170.8,1385.9,1519.1,1484.4,1699.8z"/>
								<path class="st9" d="M1127.4,1093.4l-6.1,4.4c-92.1-138-346.9-171.3-349.4-171.7l1.3-7.3
									C775.8,919.1,1033.6,952.8,1127.4,1093.4z"/>
								<path class="st9" d="M1050.6,763.4l-7.3,0.2c6.6-194.9,193.4-388.6,195.3-390.6l5.1,5
									C1241.8,379.9,1057.1,571.5,1050.6,763.4z"/>
							</g>
						</g>
					</g>
				</g>
				<g>
					<path class="st12" d="M2964.6,2134.6V899.2c0-25.3-21-28.2-46.6-29.3l-2122.3-104c-32.3-1.3-58.8,21-58.8,49.6v1365.3
						L2964.6,2134.6z"/>
					<path class="st12" d="M736.9,2180.8v272.7c0,28.6,26.5,50.8,58.8,49.5L2908.5,2395c25.6-1.1,56.1-4.5,56.1-29.8v-238.6
						L736.9,2180.8z"/>
					<path class="st12" d="M2213.7,2686.7c-38.2-12.7-66.8-45.1-74.9-85l-55.7-275.5l-476.2,16.9l-58.6,287
						c-8.2,40.2,24.6,80.5,62.5,95.3l199.2,78c37.1,14.5,76.9,20.3,116.5,16.9l421-36c12.3-1.1,22.2-10.7,23.6-23.1
						c1.4-12.4,10.1-26.3-1.7-30.2L2213.7,2686.7z"/>
					<path class="st2" d="M2218.4,2669.9c-38.2-12.5-66.8-44.6-74.8-84l-55.6-272.1l-464.6,16.7l-58.5,283.4
						c-8.2,39.7,13.5,79.5,51.3,94.1l199,77c37,14.3,76.8,20,116.4,16.7l420.6-35.6c12.3-1,22.2-10.6,23.6-22.8
						c1.4-12.3-6-23.8-17.7-27.7L2218.4,2669.9z"/>
					<path class="st2" d="M2980.1,899.2v1235.4l-1314.1,27.3l-916.1,19V815.5c0-28.6,27.1-50.9,59.4-49.6l179.3,7.2l1944.2,78.1
						C2958.5,852.3,2980.1,873.8,2980.1,899.2z"/>
					<g>
						<linearGradient id="SVGID_10_" gradientUnits="userSpaceOnUse" x1="816.7834" y1="1562.205" x2="2929.3606" y2="1562.205">
							<stop  offset="0" style="stop-color:#FF9085"/>
							<stop  offset="1" style="stop-color:#FB6FBB"/>
						</linearGradient>
						<path class="st13" d="M816.8,1005.5V2072c0,26.6,24.6,47.7,54.6,46.8l2014.3-57.3c24-0.7,43.7-20.7,43.7-44.4V1066
							L816.8,1005.5z"/>
						<linearGradient id="SVGID_11_" gradientUnits="userSpaceOnUse" x1="3104.439" y1="-100.3238" x2="1562.7896" y2="1233.3252">
							<stop  offset="0" style="stop-color:#311944"/>
							<stop  offset="1" style="stop-color:#893976"/>
						</linearGradient>
						<path class="st14" d="M2929.4,1066V956.8c0-23.3-19.2-43-42.8-43.9L870.3,837.7c-29.4-1.1-53.5,19.3-53.5,45.4v122.4
							L2929.4,1066z"/>
						<g>
							<path class="st15" d="M964.2,922.5c0,9.2-8.4,16.3-18.7,16c-10.3-0.3-18.7-8-18.7-17.2c0-9.2,8.4-16.4,18.7-16
								C955.8,905.6,964.2,913.3,964.2,922.5z"/>
							<path class="st15" d="M1044.6,925.1c0,9.1-8.3,16.2-18.5,15.9c-10.2-0.3-18.5-8-18.5-17.1c0-9.1,8.3-16.3,18.5-15.9
								C1036.4,908.4,1044.6,916,1044.6,925.1z"/>
							<path class="st15" d="M1124.2,927.7c0,9.1-8.2,16.1-18.2,15.8c-10.1-0.3-18.3-7.9-18.3-17c0-9.1,8.2-16.2,18.3-15.8
								C1116,911.1,1124.2,918.7,1124.2,927.7z"/>
						</g>
					</g>
					<linearGradient id="SVGID_12_" gradientUnits="userSpaceOnUse" x1="749.9947" y1="2314.8196" x2="2980.1157" y2="2314.8196">
						<stop  offset="0" style="stop-color:#FFFFFF"/>
						<stop  offset="0.9964" style="stop-color:#EBEFF2"/>
					</linearGradient>
					<path class="st16" d="M2980.1,2126.6v238.6c0,25.3-21.5,46.9-47.1,48l-77.3,3.3l-2046.2,86.5c-32.3,1.4-59.5-20.9-59.5-49.5
						v-283.2l913.3-8.1L2980.1,2126.6z"/>
					<path class="st17" d="M2855.4,2416.5l-2046,86.5c-32.3,1.4-59.4-20.9-59.4-49.5v-1638c0-28.6,27.1-50.9,59.4-49.6l179.3,7.2
						c27.5,18.4,52.1,41.2,71.8,68.2c0.9,1.2,1.8,2.4,2.6,3.6c15.3,21.7,26.2,44.4,33.8,67.7c3.4,10.2,6.1,20.5,8.3,30.9
						c5,23.1,7.4,46.6,8.4,70.5c2.2,50.5-1.8,102.3-1.6,153.3c0.4,103.4,6.9,206.8,75.5,290.1c50.8,61.7,133.6,85.1,202.3,121
						c80.2,41.9,150.5,97.4,191.3,179.8c50,101.2,3.1,211.1,35,315.7c2.5,8.1,5.4,15.9,8.7,23.6c9.7,22.2,22.8,42.6,38.5,61.2
						c0.9,1.1,1.8,2.1,2.7,3.2c61.1,70.3,159,114.2,243.9,135.4c174.1,43.5,354.7-31.9,527.6-37.9c124.5-4.2,296.8,23.8,388.4,117.5
						C2836.9,2388.2,2846.8,2401.7,2855.4,2416.5z"/>
				</g>
			</g>
			<g>
				<linearGradient id="SVGID_13_" gradientUnits="userSpaceOnUse" x1="2660.634" y1="3210.4226" x2="2796.8623" y2="-574.7227">
					<stop  offset="0" style="stop-color:#444B8C"/>
					<stop  offset="0.8469" style="stop-color:#26264F"/>
				</linearGradient>
				<path class="st18" d="M3105.7,733.3v371.1c0,40.1-24.6,77.2-67.1,107.5c-10.2,7.3-21.2,14.2-33.3,20.6
					c-66,35.2-159,57.1-262,57.1s-196-21.9-262.1-57.1c-62.5-33.3-100.8-78.4-100.8-128.1V733.3H3105.7z"/>
				<linearGradient id="SVGID_14_" gradientUnits="userSpaceOnUse" x1="2701.5234" y1="1288.6459" x2="2714.6506" y2="923.9047">
					<stop  offset="0" style="stop-color:#AA80F9"/>
					<stop  offset="0.9964" style="stop-color:#6165D7"/>
				</linearGradient>
				<path class="st19" d="M3038.9,1212c-10.2,7.3-21.3,14.2-33.4,20.6c-66,35.2-159,57.1-262.1,57.1s-196.1-21.9-262.1-57.1
					c-62.5-33.3-100.9-78.4-100.9-128.1V911.9c51.8,22.5,123.1,66.5,136.5,137.7c20.9,111.4,174,149.1,326.2,123.9
					C2910.2,1162.4,2980.4,1179.9,3038.9,1212z"/>
				<linearGradient id="SVGID_15_" gradientUnits="userSpaceOnUse" x1="2807.0352" y1="372.3892" x2="2731.8896" y2="932.9949">
					<stop  offset="0" style="stop-color:#444B8C"/>
					<stop  offset="0.9964" style="stop-color:#26264F"/>
				</linearGradient>
				<polygon class="st20" points="3296.2,767.9 2751.9,499.1 2207.6,767.9 2187.1,767.9 2187.1,776.6 2187.1,776.6 2753.4,1056.2 
					3319.8,776.6 3319.8,776.6 3319.8,767.9 			"/>
				<linearGradient id="SVGID_16_" gradientUnits="userSpaceOnUse" x1="2748.7288" y1="969.7234" x2="2770.4805" y2="-438.7043">
					<stop  offset="0" style="stop-color:#444B8C"/>
					<stop  offset="0.9964" style="stop-color:#26264F"/>
				</linearGradient>
				<polygon class="st21" points="2751.9,486.3 2185.7,765.9 2751.9,1045.4 3318,765.9 			"/>
				<g>
					<linearGradient id="SVGID_17_" gradientUnits="userSpaceOnUse" x1="3359.7515" y1="384.9803" x2="2699.5688" y2="1533.2448">
						<stop  offset="0" style="stop-color:#FFC444"/>
						<stop  offset="0.9964" style="stop-color:#F36F56"/>
					</linearGradient>
					<path class="st22" d="M3314.6,1154c-4.2,0-8.6-3.4-8.6-7.5V780c0-8.3-4.5-15.6-12.8-15.6h-541.3c-4.2,0-7.5-2.8-7.5-6.9
						c0-4.2,3.4-6.9,7.5-6.9h541.3c16.6,0,30.1,12.8,30.1,29.4v366.5C3323.3,1150.7,3318.8,1154,3314.6,1154z"/>
				</g>
				<linearGradient id="SVGID_18_" gradientUnits="userSpaceOnUse" x1="3287.4731" y1="1416.7571" x2="3330.6824" y2="1012.8461">
					<stop  offset="0" style="stop-color:#FFC444"/>
					<stop  offset="0.9964" style="stop-color:#F36F56"/>
				</linearGradient>
				<path class="st23" d="M3334.1,1087.4l-6.6-11.4c-2.4-4.3-7.1-7-12.1-6.9c-5,0.1-9.5,2.9-11.8,7.3l-5.9,11.8c-1.5,2.9-2,6-2,9.3
					v99.7c0,2.1,9.3,3.9,20.7,3.9s20.7-1.7,20.7-3.9v-100C3337.1,1093.8,3335.8,1090.4,3334.1,1087.4z"/>
			</g>
			<g>
				<defs>
					<polygon id="SVGID_19_" points="1338.8,2106.6 2233.4,2079.6 2935.8,1274.3 2486.2,563.6 947.1,778.8 923.6,2055.4 				"/>
				</defs>
				<clipPath id="SVGID_20_">
					<use xlink:href="#SVGID_19_"  style="overflow:visible;"/>
				</clipPath>
				<g class="st24">
					
						<linearGradient id="SVGID_21_" gradientUnits="userSpaceOnUse" x1="1387.1042" y1="337.2208" x2="1329.4368" y2="566.3732" gradientTransform="matrix(-0.3992 -0.9169 -0.9169 0.3992 3664.4155 2400.708)">
						<stop  offset="0" style="stop-color:#FFC444"/>
						<stop  offset="0.9964" style="stop-color:#F36F56"/>
					</linearGradient>
					<path class="st25" d="M2702.1,1327.4c0,0,17.3-21.5,49.8-22.8c32.5-1.3,76.7-21.6,95.6-23.5c4.6-0.5,6.8-1.8,7.2-3.6
						c0.8-3.5-20.2-8.5-38.9-8.9c-33.1-0.8-52.5,12.5-57,5.8c-5-7.5,16.4-28.2,12.5-32.8c-3-3.5-17.6,8-33.2,15.2
						c-11.1,5.1-54.4,58.7-54.4,58.7L2702.1,1327.4z"/>
					<linearGradient id="SVGID_22_" gradientUnits="userSpaceOnUse" x1="2635.6399" y1="1048.6366" x2="2234.5813" y2="1452.519">
						<stop  offset="0" style="stop-color:#AA80F9"/>
						<stop  offset="0.9964" style="stop-color:#6165D7"/>
					</linearGradient>
					<path class="st26" d="M2725.8,1318.9c-2.7,128.9-65.1,245.9-165.2,303.5c-4.1,2.4-8.4,4.7-12.6,6.9
						c-182.8,93.3-365.9-64.6-387.9-84.2c-5.7-5.1-33-30-61.4-71.5c-32.1-46.6-65.6-114.1-71.4-197.3c-2.4-34.1-9.6-138,44.3-169.5
						c55.4-32.4,143.7,30.5,179.5,56c151.6,108,155.2,240.6,238.6,254.1c37.4,6,96.7-10.9,185.9-131.7
						C2692.3,1296.4,2709.1,1307.7,2725.8,1318.9z"/>
					<linearGradient id="SVGID_23_" gradientUnits="userSpaceOnUse" x1="2295.0244" y1="1605.5574" x2="2372.3628" y2="1426.859">
						<stop  offset="0" style="stop-color:#AA80F9"/>
						<stop  offset="0.9964" style="stop-color:#6165D7"/>
					</linearGradient>
					<path class="st27" d="M2560.6,1622.4c-4.1,2.4-8.4,4.7-12.6,6.9c-182.8,93.3-365.9-64.6-387.9-84.2c-5.7-5.1-33-30-61.4-71.5
						c8.8-40,20.9-93.1,20.9-93.1s78.4-9.7,115.6,83.2c13.4,33.6,29.7,66.3,57.2,89.9c27.7,23.8,49.2,20.2,84.1,14.7
						c32.2-5,65.8,19.5,93.6,31.3C2498.9,1611.9,2528.8,1624.5,2560.6,1622.4z"/>
				</g>
				
					<linearGradient id="SVGID_24_" gradientUnits="userSpaceOnUse" x1="925.5403" y1="3229.4856" x2="1048.226" y2="3229.4856" gradientTransform="matrix(-0.996 8.970000e-02 8.970000e-02 0.996 2456.5469 -160.4537)">
					<stop  offset="0" style="stop-color:#444B8C"/>
					<stop  offset="0.9964" style="stop-color:#26264F"/>
				</linearGradient>
				<path class="st28" d="M1709.6,3118.8c-6.4,5.9-6.8,20.1-7,29.4c-0.1,4.1-0.2,6.2,0.4,7.6c3.9,10.5,23.8,10.8,55.1,12.8
					c49.6,3.2,64.5,6.6,67.9-1.1c3.2-7.3-6.2-18.6-7.3-19.8c-5.7-6.7-12.4-8.9-25.2-12.7c-23.7-7-39.7-10.7-44.5-11.8
					C1718.8,3116.2,1713.8,3114.9,1709.6,3118.8z"/>
				
					<linearGradient id="SVGID_25_" gradientUnits="userSpaceOnUse" x1="507.074" y1="3176.4197" x2="562.9727" y2="3060.7224" gradientTransform="matrix(-0.9976 6.940000e-02 6.940000e-02 0.9976 2040.621 -60.6691)">
					<stop  offset="0" style="stop-color:#FFC444"/>
					<stop  offset="0.9964" style="stop-color:#F36F56"/>
				</linearGradient>
				<path class="st29" d="M1744.3,3068.4l1.9,58.5c-1.5,2.7-18.7,9.8-31.5,1.6l-9.7-58.1L1744.3,3068.4z"/>
				
					<linearGradient id="SVGID_26_" gradientUnits="userSpaceOnUse" x1="436.8499" y1="3320.8101" x2="567.568" y2="3320.8101" gradientTransform="matrix(-0.977 0.2133 0.2133 0.977 1968.0525 -210.6557)">
					<stop  offset="0" style="stop-color:#444B8C"/>
					<stop  offset="0.9964" style="stop-color:#26264F"/>
				</linearGradient>
				<path class="st30" d="M2128,3119.9c-8.6,8.6-11.3,25.4-4.7,34.3c6.5,8.8,17.2,3.4,46.6,6.6c31.5,3.4,39.4,11.8,61.2,7.3
					c8.8-1.8,24.5-6.6,24.5-13c0-4.5-7.7-7.4-33.3-18.5c-36.3-15.6-36.1-16.3-43.9-18.3C2158.9,3113.5,2139.3,3108.6,2128,3119.9z"/>
				
					<linearGradient id="SVGID_27_" gradientUnits="userSpaceOnUse" x1="280.4402" y1="3264.4966" x2="337.6247" y2="3146.1379" gradientTransform="matrix(-0.9894 0.1453 0.1453 0.9894 1974.5804 -128.6684)">
					<stop  offset="0" style="stop-color:#FFC444"/>
					<stop  offset="0.9964" style="stop-color:#F36F56"/>
				</linearGradient>
				<path class="st31" d="M2151,3068.3l13,55.6c-1.3,2.8-18,11.3-31.5,4.1l-20.8-54.6L2151,3068.3z"/>
				
					<linearGradient id="SVGID_28_" gradientUnits="userSpaceOnUse" x1="2614.5442" y1="2784.9988" x2="2252.6082" y2="1969.1086" gradientTransform="matrix(0.9986 5.330000e-02 -5.330000e-02 0.9986 -237.5799 -19.3005)">
					<stop  offset="0" style="stop-color:#311944"/>
					<stop  offset="1" style="stop-color:#893976"/>
				</linearGradient>
				<path class="st32" d="M2071.9,1867c-7.2,182.9-5.7,389.2,11.7,614.6c17.2,222.7,47.1,425.1,81.8,603.8
					c-20.5,4.1-41,8.1-61.5,12.2c-48.7-53.3-109.2-135.8-134.7-247.8c-15.8-69.5-7.6-104-15.5-188.6
					c-12.6-134.7-48.5-207.4-83.8-317.8c-31.7-99.2-67.7-243.9-81.1-434.8C1883,1894.6,1977.4,1880.8,2071.9,1867z"/>
				
					<linearGradient id="SVGID_29_" gradientUnits="userSpaceOnUse" x1="2560.3518" y1="2808.6655" x2="2198.5298" y2="1993.0323" gradientTransform="matrix(0.9986 5.330000e-02 -5.330000e-02 0.9986 -237.5799 -19.3005)">
					<stop  offset="0" style="stop-color:#311944"/>
					<stop  offset="1" style="stop-color:#893976"/>
				</linearGradient>
				<path class="st33" d="M2043.6,2721.8c-22.5-92.7-65.9-117.9-67.5-205.1c-1.1-61.6,20.3-66.3,18.9-125.3
					c-2.2-89.5-52.8-137.2-78.2-193.9c-26.8-59.8-37.1-155.3,35.2-313c-54.5,8-108.9,16-163.3,23.9c13.4,190.9,49.5,335.6,81.1,434.8
					c35.3,110.4,71.2,183.1,83.8,317.8c7.9,84.6-0.3,119.1,15.5,188.6c25.5,112,86,194.6,134.7,247.8c5.2-1,10.4-2.1,15.6-3.1
					c-52.6-66.1-71.2-124.4-75.9-171.6C2035.9,2846.1,2066.3,2815.3,2043.6,2721.8z"/>
				
					<linearGradient id="SVGID_30_" gradientUnits="userSpaceOnUse" x1="1987.5065" y1="2992.2749" x2="1626.764" y2="2179.0757" gradientTransform="matrix(0.9976 -6.940000e-02 6.940000e-02 0.9976 -160.8932 92.9864)">
					<stop  offset="0" style="stop-color:#311944"/>
					<stop  offset="1" style="stop-color:#893976"/>
				</linearGradient>
				<path class="st34" d="M1867.4,1852.8c-24.3,231.2-46.6,466.9-66.7,706.8c-15.1,180-28.5,357.8-40.4,533.3
					c-20.7,1-41.3,2.1-62,3.1c-17.9-39.7-41.2-100.2-55.3-176.4c-17.2-92.6-9.4-146.2-14.1-241.2c-5.3-106.5-19.8-130.7-40.6-266
					c-42.3-274.5-63.4-411.8,3.6-491.6C1613.7,1895,1681.1,1830.8,1867.4,1852.8z"/>
				<linearGradient id="SVGID_31_" gradientUnits="userSpaceOnUse" x1="1550.0815" y1="1997.4866" x2="2101.1963" y2="724.0757">
					<stop  offset="0" style="stop-color:#AA80F9"/>
					<stop  offset="0.9964" style="stop-color:#6165D7"/>
				</linearGradient>
				<path class="st35" d="M1333.2,1128.1c111.1-38.2,281-80.3,489.2-69.7c120.9,6.1,237.2,20.3,319.8,44.9
					c11.2,64.7,10.2,137.5,21.4,202.2c2.6,64.8,3.4,152.5-3.6,256.1c-7,103.6-13.9,105.1-30.1,251.2
					c-26.3,238.1-15.3,300.6-61.7,328.5c-30.1,18.2-41-4.5-194.6-22.6c-102.8-12.1-155.2-17.8-207.2-0.3c-70.7,23.7-94.4,65-123.5,51
					c-27.9-13.4-31.5-63.5-34.9-150.8c-5.2-134.6-4.9-226.1-5.4-258.8c-2.2-150.2-38.8-265.3-85.7-412.6
					C1387.7,1255.1,1356.8,1180.5,1333.2,1128.1z"/>
				<g class="st24">
					
						<linearGradient id="SVGID_32_" gradientUnits="userSpaceOnUse" x1="2015.7568" y1="536.544" x2="2029.8154" y2="162.0683" gradientTransform="matrix(0.8944 0.4471 -0.4471 0.8944 171.027 -182.9961)">
						<stop  offset="0" style="stop-color:#FFC444"/>
						<stop  offset="0.463" style="stop-color:#FFC244"/>
						<stop  offset="0.6297" style="stop-color:#FEBB46"/>
						<stop  offset="0.7486" style="stop-color:#FCB048"/>
						<stop  offset="0.8447" style="stop-color:#FA9F4C"/>
						<stop  offset="0.9261" style="stop-color:#F78951"/>
						<stop  offset="0.9964" style="stop-color:#F36F56"/>
					</linearGradient>
					<path class="st36" d="M1808.6,909.2c-1.6,37.8-7.3,67.6-12.2,87.9c-5.6,23.3-9.1,29.1-13.4,33.8c-6.5,7-16.1,12.7-69.1,22.8
						c-28.8,5.5-32.5,5.1-33.2,8c-3.8,14.1,71.3,67.6,152.1,61c49.5-4.1,95.7-30.2,93.8-45.7c-2-15.5-51.5-10.4-64.7-39.1
						c-9.2-19.9,3.6-46.6,18.3-68.5C1868.4,943.3,1820.4,935.3,1808.6,909.2z"/>
					<g>
						
							<linearGradient id="SVGID_33_" gradientUnits="userSpaceOnUse" x1="-199.7368" y1="1093.3473" x2="-295.4782" y2="850.1815" gradientTransform="matrix(-0.9515 -0.3078 -0.3078 0.9515 1860.2921 -28.9373)">
							<stop  offset="0" style="stop-color:#444B8C"/>
							<stop  offset="0.9964" style="stop-color:#26264F"/>
						</linearGradient>
						<path class="st37" d="M1901,948.7c16-11.5,25.3-37.8,18-58.8c-6.2-18.1-22.7-25.9-32.6-30.6c-28.6-13.6-70.4-13.4-92.8,10.7
							c-13.2,14.3-7.9,54.9-7.3,62.1c0.7,8.1,5.2,12.4,8.5,19.5c4.5,9.8,11.4,25.3,22.6,51.2c3.3-5.4,7.7-12,13.6-18.7
							c2.3-2.6,11.2-12.7,22.2-19.9C1875.1,949.7,1885.9,959.6,1901,948.7z"/>
						
							<linearGradient id="SVGID_34_" gradientUnits="userSpaceOnUse" x1="1734.686" y1="975.4114" x2="1730.2529" y2="1332.5905" gradientTransform="matrix(0.9685 0.249 -0.249 0.9685 410.6411 -444.9165)">
							<stop  offset="0" style="stop-color:#FFC444"/>
							<stop  offset="0.9964" style="stop-color:#F36F56"/>
						</linearGradient>
						<path class="st38" d="M1797.7,977.5c0,0,8.7,40,48.6,50.5c35.7,9.5,67.3-70.1,50.6-94.9c-5.6-8.3-19.7-15.7-33-16.3
							c-7.8-0.3-11.3,1.9-24.1,1.1c-11.8-0.7-14.5-3-18.7-1.3c-5.3,2.2-11.1,10-12,36c-4.4-9.2-11.5-14.6-18.1-13.8
							c-1,0.1-4,1-6.2,3.1C1777,949.8,1781.3,964.4,1797.7,977.5z"/>
						
							<linearGradient id="SVGID_35_" gradientUnits="userSpaceOnUse" x1="-228.457" y1="1106.6552" x2="-325.6131" y2="859.8963" gradientTransform="matrix(-0.9515 -0.3078 -0.3078 0.9515 1860.2921 -28.9373)">
							<stop  offset="0" style="stop-color:#444B8C"/>
							<stop  offset="0.9964" style="stop-color:#26264F"/>
						</linearGradient>
						<path class="st39" d="M1821.2,911.4c1.3,1.9-6,6.7-9.4,15.8c-6.6,17.7,3.9,45.1,21.1,52.9c10.2,4.6,15.2-1,33.3,3
							c11.2,2.5,19.7,6.9,24.9,10.1c-0.9,21.5-12.5,39.4-28.1,44.2c-16.8,5.2-32.3-6.6-38.8-11.6c-4.3-3.3-18.2-13.9-21.5-31.5
							c-3.5-18.3,7.9-24.8,1.6-38.6c-3.2-6.9-8.9-11.4-11.9-23.7c-0.8-3.4-1.1-6.2-1.3-8.1C1803.4,917,1819.3,908.6,1821.2,911.4z"/>
						
							<linearGradient id="SVGID_36_" gradientUnits="userSpaceOnUse" x1="-321.8805" y1="958.9699" x2="-316.947" y2="1002.9513" gradientTransform="matrix(-0.9515 -0.3078 -0.3078 0.9515 1860.2921 -28.9373)">
							<stop  offset="0" style="stop-color:#FFC444"/>
							<stop  offset="1" style="stop-color:#F36F56"/>
						</linearGradient>
						<path class="st40" d="M1876,996.1c0,0-8.9,1.5-21.7-3.6c-0.6-0.3-1.4-0.3-1.6,0c-0.7,1.2,5.8,9.8,14.2,10.1
							c6,0.2,12-3.7,11.7-5.3C1878.6,996.7,1877.3,996.3,1876,996.1z"/>
					</g>
				</g>
				<linearGradient id="SVGID_37_" gradientUnits="userSpaceOnUse" x1="1491.1326" y1="1734.09" x2="1516.7009" y2="1812.1292">
					<stop  offset="0" style="stop-color:#FFC444"/>
					<stop  offset="0.9964" style="stop-color:#F36F56"/>
				</linearGradient>
				<path class="st41" d="M1435.7,1759.1l36.8-1.7c0,0,40.4-34.5,58.7-32.1c18.4,2.4,45.9,16,49.2,18.8c3.4,2.8-10.1,18.2-23.5,16.5
					c-13.4-1.7-43.3,5.4-48.7,17.6c-5.3,12.2-28.6,19.3-32.5,12l-49.5,9.6L1435.7,1759.1z"/>
				<linearGradient id="SVGID_38_" gradientUnits="userSpaceOnUse" x1="1143.9966" y1="1811.4045" x2="1690.5177" y2="548.6077">
					<stop  offset="0" style="stop-color:#AA80F9"/>
					<stop  offset="0.9964" style="stop-color:#6165D7"/>
				</linearGradient>
				<path class="st42" d="M1446.9,1745.9c2.6,31.4-4,52.6-15,67.1c-48.6,64.1-213.6,35.4-311.5-52.4
					c-72.4-64.9-110.7-164.7-109.3-253.7c2.8-173.7,157.5-342.5,388.3-399.5c34.2,106.5,68.5,213.1,102.7,319.8
					c-142.6,0.8-229.1,111.4-216.3,191.1C1295.4,1677.6,1362,1731.7,1446.9,1745.9z"/>
				<linearGradient id="SVGID_39_" gradientUnits="userSpaceOnUse" x1="1649.7244" y1="2040.5092" x2="2201.1614" y2="766.3538">
					<stop  offset="0" style="stop-color:#AA80F9"/>
					<stop  offset="0.9964" style="stop-color:#6165D7"/>
				</linearGradient>
				<path class="st43" d="M2008.5,2062.2c-75.6-34.5-75.1-103.5-145.6-133.2c-100.5-42.4-211.4,51.4-228.6,24.7
					c-18-27.7,114.4-110.3,96.8-193.7c-14-66.3-106.4-55.7-155.8-146.7c-46.9-86.3-1.4-165.1-42.9-195.3
					c-14.9-10.8-41.1-15.3-90.8,6.9c34.7,112.7,59.5,212.2,61.3,335c0.5,32.7,0.2,124.2,5.4,258.8c3.4,87.3,6.9,137.4,34.9,150.8
					c29.1,14,52.8-27.3,123.5-51c52-17.4,104.4-11.8,207.2,0.3c153.6,18.1,164.5,40.7,194.6,22.6c19.6-11.8,29-29.9,35.2-64.9
					C2072.6,2079.4,2039.9,2076.5,2008.5,2062.2z"/>
			</g>
			<g>
				<linearGradient id="SVGID_40_" gradientUnits="userSpaceOnUse" x1="1765.8832" y1="1209.304" x2="1889.6593" y2="2529.5881">
					<stop  offset="0" style="stop-color:#311944"/>
					<stop  offset="1" style="stop-color:#893976"/>
				</linearGradient>
				<path class="st44" d="M2747.5,2013.3l-1812.1,35.1c-3.1,0.1-5.6-2.4-5.7-5.5l-0.6-29c-0.1-3.1,2.4-5.6,5.5-5.7l1812.1-35.1
					c3.1-0.1,5.6,2.4,5.7,5.5l0.6,29C2753,2010.6,2750.5,2013.2,2747.5,2013.3z"/>
				<linearGradient id="SVGID_41_" gradientUnits="userSpaceOnUse" x1="2176.1958" y1="1940.3643" x2="2559.5706" y2="2321.0203">
					<stop  offset="0" style="stop-color:#FFC444"/>
					<stop  offset="0.9964" style="stop-color:#F36F56"/>
				</linearGradient>
				<circle class="st45" cx="2239.8" cy="2003.5" r="43.8"/>
			</g>
			<g>
				<g>
					<path class="st3" d="M2402.9,2974.6c5.1,0,9.3-4.2,9.3-9.3v-730c0-2.3-8.2-4.2-18.3-4.2c-10.1,0-18.3,1.9-18.3,4.2v730
						c0,5.1,4.2,9.3,9.3,9.3H2402.9z"/>
					<g>
						<polygon class="st46" points="2420,2226.1 1119.3,2285.2 1119.3,2308.2 1774.5,2381.8 2970.9,2318.4 2970.9,2286.5 					"/>
						<polygon class="st3" points="1774.5,2381.8 1119.3,2308.2 1119.3,2343.7 1774.5,2417.4 2970.9,2353.9 2970.9,2318.4 					"/>
					</g>
					<path class="st3" d="M1811.7,3148.5c5.1,0,9.3-4.2,9.3-9.3v-730c0-2.3-8.2-4.2-18.3-4.2c-10.1,0-18.3,1.9-18.3,4.2v730
						c0,5.1,4.2,9.3,9.3,9.3H1811.7z"/>
				</g>
				<g>
					
						<linearGradient id="SVGID_42_" gradientUnits="userSpaceOnUse" x1="1675.5668" y1="3056.9302" x2="1719.2225" y2="3095.7622" gradientTransform="matrix(-0.9902 -0.14 -0.14 0.9902 3687.3257 206.9384)">
						<stop  offset="0" style="stop-color:#444B8C"/>
						<stop  offset="0.9964" style="stop-color:#26264F"/>
					</linearGradient>
					<path class="st47" d="M1587.9,3019.1c-1.2-6.8-23.3-13-34.3-3.9c-5.4,4.6-9.2,13.8-6,17.9c1.1,1.5-3.5,4.2,0.9,4.2
						C1563.5,3037.6,1589.2,3025.9,1587.9,3019.1z"/>
					
						<linearGradient id="SVGID_43_" gradientUnits="userSpaceOnUse" x1="1432.262" y1="3493.1887" x2="1432.262" y2="3417.136" gradientTransform="matrix(-0.9988 4.980000e-02 4.980000e-02 0.9988 2810.8794 -528.7908)">
						<stop  offset="0" style="stop-color:#FFC444"/>
						<stop  offset="0.9964" style="stop-color:#F36F56"/>
					</linearGradient>
					<path class="st48" d="M1563.8,3019.1l-22.9,1.1c7.9-14.4-1.6-53.7-1.6-53.7l24.8,0.7c0,0-0.6,11.4-2.1,28.3
						C1561.4,3001.4,1562.3,3010.1,1563.8,3019.1z"/>
					
						<linearGradient id="SVGID_44_" gradientUnits="userSpaceOnUse" x1="1679.9559" y1="3051.9973" x2="1723.6115" y2="3090.8291" gradientTransform="matrix(-0.9902 -0.14 -0.14 0.9902 3687.3257 206.9384)">
						<stop  offset="0" style="stop-color:#444B8C"/>
						<stop  offset="0.9964" style="stop-color:#26264F"/>
					</linearGradient>
					<path class="st49" d="M1566.8,3018.8c0,0-27.4-6.3-30.3-0.9c-3,5.4-5.3,20,12.1,19.5C1565.9,3036.9,1568.3,3023.4,1566.8,3018.8
						z"/>
					
						<linearGradient id="SVGID_45_" gradientUnits="userSpaceOnUse" x1="1847.5664" y1="3025.6819" x2="1891.2244" y2="3064.5156" gradientTransform="matrix(-1 0 0 1 3584.4829 0)">
						<stop  offset="0" style="stop-color:#444B8C"/>
						<stop  offset="0.9964" style="stop-color:#26264F"/>
					</linearGradient>
					<path class="st50" d="M1727.5,3047c-2.2-6.6-24.9-9.6-34.5,1c-4.7,5.3-7.2,14.9-3.5,18.6c1.3,1.3-2.9,4.6,1.5,4.1
						C1705.9,3068.7,1729.7,3053.5,1727.5,3047z"/>
					
						<linearGradient id="SVGID_46_" gradientUnits="userSpaceOnUse" x1="1675.3896" y1="3389.6794" x2="1675.3896" y2="3313.6248" gradientTransform="matrix(-0.9813 0.1926 0.1926 0.9813 2684.261 -582.0115)">
						<stop  offset="0" style="stop-color:#FFC444"/>
						<stop  offset="0.9964" style="stop-color:#F36F56"/>
					</linearGradient>
					<path class="st51" d="M1700.6,3053.3l-22.5,4.4c5.8-15.4-9.3-52.9-9.3-52.9l24.6-2.8c0,0,1,11.4,2,28.4
						C1695.7,3036.1,1697.9,3044.6,1700.6,3053.3z"/>
					
						<linearGradient id="SVGID_47_" gradientUnits="userSpaceOnUse" x1="1851.9557" y1="3020.749" x2="1895.6129" y2="3059.5823" gradientTransform="matrix(-1 0 0 1 3584.4829 0)">
						<stop  offset="0" style="stop-color:#444B8C"/>
						<stop  offset="0.9964" style="stop-color:#26264F"/>
					</linearGradient>
					<path class="st52" d="M1706.5,3049.6c0,0-28-2.4-30.1,3.4c-2.2,5.8-2.4,20.5,14.7,17.6C1708.2,3067.7,1708.7,3054,1706.5,3049.6
						z"/>
					<g>
						<path class="st53" d="M1581.9,2436l96.7-226.5c4.8-11.3-1.7-24.3-13.6-27.2l-177.1-43c-9.6-2.3-19.4,2.7-23.1,11.8l-88.9,217.7
							c-4.4,10.8,1.4,23.1,12.6,26.6l169.3,51.8C1567.5,2450.2,1577.9,2445.4,1581.9,2436z"/>
						
							<linearGradient id="SVGID_48_" gradientUnits="userSpaceOnUse" x1="-543.6239" y1="2299.5188" x2="-629.4782" y2="2130.1304" gradientTransform="matrix(-1 0 0 1 975.4035 0)">
							<stop  offset="0" style="stop-color:#FF9085"/>
							<stop  offset="1" style="stop-color:#FB6FBB"/>
						</linearGradient>
						<path class="st54" d="M1577.5,2425.1l90.3-211.5c4.5-10.6-1.5-22.7-12.7-25.4l-165.4-40.2c-8.9-2.2-18.1,2.5-21.6,11
							l-83.1,203.3c-4.1,10.1,1.3,21.6,11.8,24.8l158.2,48.4C1564,2438.4,1573.8,2433.9,1577.5,2425.1z"/>
					</g>
					<linearGradient id="SVGID_49_" gradientUnits="userSpaceOnUse" x1="1626.6586" y1="2253.9902" x2="1687.7687" y2="2590.6951">
						<stop  offset="0" style="stop-color:#FFC444"/>
						<stop  offset="0.9964" style="stop-color:#F36F56"/>
					</linearGradient>
					<path class="st55" d="M1633.2,2363l2.9-26.7l15.4-29.3c2.1-4,3.2-8.4,3.2-12.9v-29.1l-18.6,42.9c0,0-12.2-11-16.8-13.3
						c-4.6-2.3-4.1,7-0.6,10.4c3.5,3.5-1.7,31.9,1.7,34.8l-1.2,17.4L1633.2,2363z"/>
					<linearGradient id="SVGID_50_" gradientUnits="userSpaceOnUse" x1="1280.8611" y1="2211.9324" x2="1139.7716" y2="2621.324">
						<stop  offset="0" style="stop-color:#AA80F9"/>
						<stop  offset="0.9964" style="stop-color:#6165D7"/>
					</linearGradient>
					<path class="st56" d="M1369.7,2073c-54.1-52.6-145.7-62.3-214.6-36.9c-111.9,41.3-141.8,167-150.6,203.8
						c-19.1,80.3,14.3,73.9,7.2,223.3c-4.8,100.7-23.4,167.3,19.7,208.8c9.9,9.5,20.9,14.4,42.9,24.4
						c87.4,39.3,165.8,32.6,213.5,27.8c52.4-5.2,78.9-8.2,92.8-26.7c22.2-29.6-0.7-67.2-4.6-132.3c-4-64.5,14.5-92.4,29-157.8
						C1419.7,2341.3,1459.6,2160.5,1369.7,2073z"/>
					<g>
						<g>
							<linearGradient id="SVGID_51_" gradientUnits="userSpaceOnUse" x1="1438.8087" y1="2086.448" x2="1114.5182" y2="2193.0642">
								<stop  offset="0" style="stop-color:#FFC444"/>
								<stop  offset="0.9964" style="stop-color:#F36F56"/>
							</linearGradient>
							<path class="st57" d="M1448.1,2099.9c18.1-7.4,26.2-25.5,27.9-29.4c7.2-16.4,7.5-19.5,7.2-24.4l-0.7-6.6c0,0-0.1-0.3-0.2-0.7
								c0,0-2.8-8.7-10.5-15.3c-6.2-5.3-40.7,6.7-81.5,35.9c-5.3,2.9-10.6,5.7-15.9,8.6c-3.2-0.4-8-1.1-13.7-2.3
								c-38.2-7.8-53.6-22.9-58.6-18.5c-6.9,6.1,13.2,43.6,38.1,74.1c25.6,31.3,63.8,64.5,71.2,58.6c0.2-0.2,0.5-0.3,0.8-1.1
								c1.7-3.9-9.1-40.8-7.8-56.6c1.2-14.5,9.7-20.1,14.9-25.2C1422.7,2098.4,1434.8,2105.4,1448.1,2099.9z"/>
							<path class="st15" d="M1481.1,2062.2c-2.9-0.7-4-4.9-9.6-6.1c-2.9-0.6-7.7-0.6-7.7-0.6l0,0c-0.6,0-1.1,0.2-1.8,0.4
								c-9,3.1-8.6,20.9-13.5,21.2c-3.5,0.2-6.5-9.9-9.2-9.2c-2.5,0.6-1.4,10-4.5,10.8c-2.3,0.6-3.8-4.6-8.3-5c-2.3-0.2-3,0.9-8,2.7
								c0,0-4.2,1.5-8.1,2.1c-9.3,1.6-23.5-8.2-23.4-17.2c0-4.5,3.7-5.3,6.8-11.3c5.7-10.9-0.2-20,0.2-29.9
								c0.8-16.8,19.8-33.4,37.4-37.8c34.2-8.6,71.8,26.5,70.2,52.1C1500.9,2048.9,1487.3,2063.7,1481.1,2062.2z"/>
							
								<linearGradient id="SVGID_52_" gradientUnits="userSpaceOnUse" x1="462.3494" y1="1613.5636" x2="506.0836" y2="1915.5084" gradientTransform="matrix(0.6156 0.7881 -0.7881 0.6156 2498.4622 642.01)">
								<stop  offset="0" style="stop-color:#FFC444"/>
								<stop  offset="0.9964" style="stop-color:#F36F56"/>
							</linearGradient>
							<path class="st58" d="M1448,2071c1.6-5.7-5.7-7.8-10.7-4c-4.9,3.8-6.3,12.6-1.7,16.4C1440.2,2087.3,1445.8,2078.8,1448,2071z"
								/>
						</g>
						<path class="st15" d="M1454.5,2062.4l-3.3,12.9c0,0-4.8,14.9,3.9,14.6c7.2-0.3,7,0,6.9,0.4c0,0.1,0.2,0.3,0.3,0.3
							c0.1,0,2.3-2.1,3.9-4.1c-1.1,3.6-3.2,9.3-7.4,14.9c-4.1,5.4-8.5,11.3-16.2,12.5c-0.4,0.1-8.7,1.3-14.7-3.7
							c0,0-2.4-1.9-8.5-13.3c0,0,16.5,4.7,18.5,3.4c5.5-3.6,2.7-12.8,9.1-26.4C1449.5,2068.8,1452.4,2064.9,1454.5,2062.4z"/>
					</g>
					
						<linearGradient id="SVGID_53_" gradientUnits="userSpaceOnUse" x1="-532.914" y1="2318.2456" x2="-224.302" y2="2612.9351" gradientTransform="matrix(-1 0 0 1 975.4035 0)">
						<stop  offset="0" style="stop-color:#AA80F9"/>
						<stop  offset="0.9964" style="stop-color:#6165D7"/>
					</linearGradient>
					<path class="st59" d="M1242.6,2662.8c15.4-30.7-22.4-71.5,2.3-118.3c21-39.8,59.1-30.9,76.6-67.3c21.2-44-24.9-76.9-23.2-143.9
						c2-80,70.8-160.2,111.4-153.1c26.2,4.5,29.6,43.7,48,86.5c-16.3,35.8-35.4,80.7-52.7,140.9c-21.2,74-31.9,111.1-29,157.8
						c4,65.1,26.8,102.7,4.6,132.3c-13.9,18.5-40.4,21.5-92.8,26.7c-47.6,4.7-126,11.5-213.5-27.8c-11.1-5-19.4-8.7-26.1-12.4
						C1184.9,2704.6,1230.4,2687.1,1242.6,2662.8z"/>
					<linearGradient id="SVGID_54_" gradientUnits="userSpaceOnUse" x1="1488.9598" y1="2337.2622" x2="1342.7744" y2="2761.4404">
						<stop  offset="0" style="stop-color:#AA80F9"/>
						<stop  offset="0.9964" style="stop-color:#6165D7"/>
					</linearGradient>
					<path class="st60" d="M1638.5,2357.7c-8.5-3.7-17-7.3-25.5-11c-14.4,14.7-32.7,29-48.1,24.4c-23-6.9-17.2-49.2-45.2-123.6
						c-31.7-84.2-67.7-105.9-85.9-113.7c-10.1-4.4-17.1-7.3-25.5-5.2c-38.7,9.5-51.5,110.2-40.6,185.6
						c6.1,42.5,18.1,125.8,86.4,165.3c9.7,5.6,63.1,36.5,116,12.2C1615.2,2470.9,1643.1,2417.6,1638.5,2357.7z"/>
					
						<linearGradient id="SVGID_55_" gradientUnits="userSpaceOnUse" x1="-206.6498" y1="2546.6563" x2="-459.6287" y2="2727.3557" gradientTransform="matrix(-1 0 0 1 975.4035 0)">
						<stop  offset="0" style="stop-color:#444B8C"/>
						<stop  offset="0.9964" style="stop-color:#26264F"/>
					</linearGradient>
					<path class="st61" d="M1578.7,2969.7c-14.1,1.6-28.3,3.1-42.4,4.7c-19.1-21.2-47.6-58.1-62.9-110
						c-29.2-99.4,16.5-164.7-14.1-190.1c-35.3-29.3-105.2,49.9-259.3,72.3c-49.6,7.2-159.7,23.2-204.3-36.1
						c-18.1-24.1-28.4-64.6-14.1-99c25.6-61.7,110-54.3,388.1-108.4c107.1-20.9,124-27.7,149.5-15.5
						C1645.1,2547.5,1592.6,2887.3,1578.7,2969.7z"/>
					
						<linearGradient id="SVGID_56_" gradientUnits="userSpaceOnUse" x1="-752.2635" y1="2767.9238" x2="-125.776" y2="2767.9238" gradientTransform="matrix(-1 0 0 1 975.4035 0)">
						<stop  offset="0" style="stop-color:#444B8C"/>
						<stop  offset="0.9964" style="stop-color:#26264F"/>
					</linearGradient>
					<path class="st62" d="M1705,3009.7c-14.1,1.6-28.3,3.1-42.4,4.7c-19.1-21.2-47.6-58.1-62.9-110
						c-29.2-99.4,16.5-164.7-14.1-190.1c-35.3-29.3-105.2,49.9-259.3,72.3c-49.6,7.2-159.7,23.2-204.3-36.1
						c-18.1-24.1-28.4-64.6-14.1-99c25.6-61.7,110-54.3,388.1-108.4c107.1-20.9,124-27.7,149.5-15.5
						C1771.3,2587.5,1718.9,2927.3,1705,3009.7z"/>
				</g>
				<g>
					<linearGradient id="SVGID_57_" gradientUnits="userSpaceOnUse" x1="1202.0476" y1="3057.4329" x2="1228.4814" y2="3223.3289">
						<stop  offset="0" style="stop-color:#AA80F9"/>
						<stop  offset="0.9964" style="stop-color:#6165D7"/>
					</linearGradient>
					<path class="st63" d="M986.4,3180.3c0,52.9,105,95.7,234.5,95.7c129.5,0,234.5-42.9,234.5-95.7c0-0.8,0.1-10.4,0-11.2
						c-3.3-51.7-107.1-84.5-234.5-84.5c-127.1,0-230.7,34-234.5,85.5C986.3,3171,986.4,3179.3,986.4,3180.3z"/>
					<linearGradient id="SVGID_58_" gradientUnits="userSpaceOnUse" x1="1213.0271" y1="3250.5781" x2="1244.7487" y2="2921.5825">
						<stop  offset="0" style="stop-color:#AA80F9"/>
						<stop  offset="0.9964" style="stop-color:#6165D7"/>
					</linearGradient>
					<path class="st64" d="M986.4,3169.1c0,49.9,105,90.4,234.5,90.4c129.5,0,234.5-40.5,234.5-90.4c0-49.9-105-131.6-234.5-131.6
						C1091.4,3037.5,986.4,3119.2,986.4,3169.1z"/>
					
						<linearGradient id="SVGID_59_" gradientUnits="userSpaceOnUse" x1="-868.9163" y1="3125.4507" x2="-474.783" y2="3125.4507" gradientTransform="matrix(-1 0 0 1 511.5771 0)">
						<stop  offset="0" style="stop-color:#AA80F9"/>
						<stop  offset="0.9964" style="stop-color:#6165D7"/>
					</linearGradient>
					<path class="st65" d="M986.4,3169.1c0-49.9,105-131.6,234.5-131.6c59.8,0,114.4,17.4,155.8,41.1c2.9,6.1,4.3,12.1,3.7,17.9
						c-2.7,28.1-48.5,45.3-74.8,51c-66.2,14.3-98.5-25.2-153.1-23.7c-33.7,0.9-80.5,17.9-136,89.7
						C997.4,3200.3,986.4,3185.2,986.4,3169.1z"/>
					<linearGradient id="SVGID_60_" gradientUnits="userSpaceOnUse" x1="1172.7872" y1="2849.5649" x2="1430.2739" y2="3313.7661">
						<stop  offset="0" style="stop-color:#AA80F9"/>
						<stop  offset="0.9964" style="stop-color:#6165D7"/>
					</linearGradient>
					<path class="st66" d="M1208,3082.8c9.4,2.3,18.1,2.2,26.3,0.1c7.5-1.9,12.6-8.8,12.6-16.5l0-264.5h-52.2v264.1
						C1194.8,3074.1,1200.3,3080.9,1208,3082.8z"/>
					<g>
						
							<linearGradient id="SVGID_61_" gradientUnits="userSpaceOnUse" x1="-450.4229" y1="2887.8413" x2="-546.0381" y2="2763.2515" gradientTransform="matrix(-1 0 0 1 511.5771 0)">
							<stop  offset="0" style="stop-color:#311944"/>
							<stop  offset="1" style="stop-color:#893976"/>
						</linearGradient>
						<path class="st67" d="M1496.5,2690.7l-79.7-50.4c-3.3-18.8-40.9-215.6-193.3-277.4c-62-25.1-128.7-22.2-165.3-20.5
							c-73.1,3.3-125.2,5.6-150.3,40.5c-32.2,44.8,21.8,85.4,10.6,213.4c-4.6,52.2-16.2,75.4-1.7,110c17.3,41.4,57.4,64.4,88.6,77.3
							c37.3,21.7,102.2,52.5,188,60c144.5,12.7,252.3-49.3,289.4-73c16.5-5.2,28.9-18.9,32.4-35.8
							C1518.7,2717.7,1511.3,2700.1,1496.5,2690.7z"/>
					</g>
					<path class="st68" d="M1459.8,2726.6c-2.9-17.7-52.3-3-99-37.7c-69.8-51.8-33.6-139.7-94.3-223.9
						c-55.7-77.3-167.9-116.7-202.7-87.2c-46.3,39.2,67.1,185.9,0,280.5c-32.6,46-82.2,43.8-82.5,70.7
						c-0.4,42.6,123.2,91.7,240.4,89.6C1347.8,2816.2,1464.5,2754.7,1459.8,2726.6z"/>
				</g>
				<g>
					<g>
						<g>
							<path class="st53" d="M2606.6,2318.3l-514.8-3.8v11.3c0,3.1,2.2,5.7,5.3,6.2l145.6,22.3c1.7,0.3,3.5,0.3,5.2,0.2L2601,2329
								c3.2-0.2,5.6-2.9,5.6-6V2318.3z"/>
							<g>
								<path class="st53" d="M2419.8,2299.5l-322.7,20.7c-5.8,0.4-10.5-3.6-10.5-8.8v-209.8c0-5.2,4.7-9.5,10.5-9.5h322.7
									c4.8,0,8.6,3.8,8.6,8.6v189.6C2428.4,2295.2,2424.5,2299.2,2419.8,2299.5z"/>
								<path class="st53" d="M2424.9,2299.5l-322.7,20.7c-5.8,0.4-10.5-3.6-10.5-8.8v-209.8c0-5.2,4.7-9.5,10.5-9.5h322.7
									c4.8,0,8.6,3.8,8.6,8.6v189.6C2433.5,2295.2,2429.7,2299.2,2424.9,2299.5z"/>
								<linearGradient id="SVGID_62_" gradientUnits="userSpaceOnUse" x1="2105.8123" y1="2204.302" x2="2421.9797" y2="2204.302">
									<stop  offset="0" style="stop-color:#FF9085"/>
									<stop  offset="1" style="stop-color:#FB6FBB"/>
								</linearGradient>
								<path class="st69" d="M2414.9,2286.2l-300.6,18c-4.7,0.3-8.5-3-8.5-7.2v-183.7c0-4.3,3.8-7.8,8.5-7.8l300.6-1.1
									c3.9,0,7.1,3.1,7.1,7v167.3C2422,2282.6,2418.8,2285.9,2414.9,2286.2z"/>
								<path class="st15" d="M2275,2098c0,1.9-1.7,3.5-3.7,3.5c-2.1,0-3.7-1.6-3.7-3.5c0-2,1.7-3.5,3.7-3.5
									C2273.3,2094.4,2275,2096,2275,2098z"/>
								<path class="st70" d="M2348.5,2242.1c-25-12.2-44.7,3.3-63.6-12c-11.5-9.2-5.9-16.1-20-29.9c-15.7-15.3-25.9-10.1-41.6-23.9
									c-19.9-17.4-10-30.9-27.1-43.4c-20.8-15.1-43.3-1.1-63.1-15.7c-8.5-6.3-13.2-15.4-15.7-25.1h-19.4c-3.4,0-6.2,2.5-6.2,5.6
									v217.6c0,3.1,2.8,5.4,6.2,5.2l330.6-21.2c1.6-0.1,3.1-1,4-2.2c-24.2-0.8-39.1-8.1-48.6-15.7
									C2365.3,2266.5,2368.5,2251.9,2348.5,2242.1z"/>
							</g>
							<linearGradient id="SVGID_63_" gradientUnits="userSpaceOnUse" x1="2091.7756" y1="2321.5515" x2="2606.6252" y2="2321.5515">
								<stop  offset="0" style="stop-color:#444B8C"/>
								<stop  offset="0.9964" style="stop-color:#26264F"/>
							</linearGradient>
							<path class="st71" d="M2437.8,2299l-346,21.8l150.9,23.1c1.7,0.3,3.5,0.3,5.2,0.2l358.8-25.9l-163.3-19.2
								C2441.5,2298.9,2439.6,2298.9,2437.8,2299z"/>
							<polygon class="st72" points="2142.3,2321 2430.3,2302.5 2519.5,2312.9 2233.9,2332.6 						"/>
						</g>
					</g>
					
						<linearGradient id="SVGID_64_" gradientUnits="userSpaceOnUse" x1="3093.8389" y1="2873.7654" x2="3110.7615" y2="3089.1433" gradientTransform="matrix(1 0 0 1 -626.2627 0)">
						<stop  offset="3.597000e-03" style="stop-color:#26264F"/>
						<stop  offset="1" style="stop-color:#444B8C"/>
					</linearGradient>
					<path class="st73" d="M2503.3,2981c0,0-75.7,5.3-76.8,10.2c-1.1,4.9,51.4,24,69.7,24.8c18.3,0.7,33.4-4.7,31.8-12.5
						c-1.7-7.8-8.1-27.3-8.1-27.3L2503.3,2981z"/>
					
						<linearGradient id="SVGID_65_" gradientUnits="userSpaceOnUse" x1="2179.6943" y1="2695.8533" x2="2176.1414" y2="2438.2451" gradientTransform="matrix(0.9853 0.171 -0.171 0.9853 820.6597 -36.2046)">
						<stop  offset="0" style="stop-color:#FFC444"/>
						<stop  offset="0.9964" style="stop-color:#F36F56"/>
					</linearGradient>
					<path class="st74" d="M2499.8,2947.3l-1.3,35.7c0,0,11.5,6.5,20.7,2.8l10.2-37.7L2499.8,2947.3z"/>
					
						<linearGradient id="SVGID_66_" gradientUnits="userSpaceOnUse" x1="2882.178" y1="2859.3621" x2="2899.1006" y2="3074.74" gradientTransform="matrix(1 0 0 1 -626.2627 0)">
						<stop  offset="3.597000e-03" style="stop-color:#26264F"/>
						<stop  offset="1" style="stop-color:#444B8C"/>
					</linearGradient>
					<path class="st75" d="M2291.7,2966.6c0,0-75.7,5.3-76.8,10.2c-1.1,4.9,51.4,24,69.7,24.8c18.3,0.7,33.4-4.7,31.8-12.5
						c-1.7-7.8-8.1-27.3-8.1-27.3L2291.7,2966.6z"/>
					
						<linearGradient id="SVGID_67_" gradientUnits="userSpaceOnUse" x1="1968.6934" y1="2717.8542" x2="1965.1403" y2="2460.248" gradientTransform="matrix(0.9853 0.171 -0.171 0.9853 820.6597 -36.2046)">
						<stop  offset="0" style="stop-color:#FFC444"/>
						<stop  offset="0.9964" style="stop-color:#F36F56"/>
					</linearGradient>
					<path class="st76" d="M2288.1,2932.9l-1.3,35.7c0,0,11.5,6.5,20.7,2.8l10.2-37.7L2288.1,2932.9z"/>
					<linearGradient id="SVGID_68_" gradientUnits="userSpaceOnUse" x1="2888.7573" y1="2416.4187" x2="2792.1226" y2="2560.1924">
						<stop  offset="0" style="stop-color:#444B8C"/>
						<stop  offset="0.9964" style="stop-color:#26264F"/>
					</linearGradient>
					<path class="st77" d="M2491.7,2952.4c14.1,1.6,28.3,3.1,42.4,4.7c19.1-21.2,47.6-58.1,62.9-110
						c29.4-100.1-13.2-172.2,14.1-190.1c38.7-25.4,122.4,120.8,256.9,117.1c55.2-1.5,127.2-28.6,154.9-87.4c4.2-8.9,24.7-55.4,4.7-99
						c-20.6-45-123-64.6-326.9-102c-87.5-16-131.7-24-149.5-15.5C2425.3,2530.2,2477.8,2870,2491.7,2952.4z"/>
					<linearGradient id="SVGID_69_" gradientUnits="userSpaceOnUse" x1="2275.7739" y1="2732.9851" x2="2969.2878" y2="2732.9851">
						<stop  offset="0" style="stop-color:#444B8C"/>
						<stop  offset="0.9964" style="stop-color:#26264F"/>
					</linearGradient>
					<path class="st78" d="M2275.8,2953c14.6,2.5,29.3,5.1,43.9,7.6c17.8-26.2,44.7-67.2,74.7-119.2
						c62.7-108.5,61.5-130.5,90.5-144.4c61.3-29.5,107.6,50.3,259.3,72.3c49.6,7.2,159.7,23.2,204.3-36.1
						c18.1-24.1,28.4-64.6,14.1-99c-25.6-61.7-110-54.3-388.1-108.4c-108.4-21.1-123.2-24.9-149.5-15.5
						C2278.3,2562.3,2275.4,2881.7,2275.8,2953z"/>
					<linearGradient id="SVGID_70_" gradientUnits="userSpaceOnUse" x1="2646.6162" y1="2212.5374" x2="2955.3022" y2="2507.2974">
						<stop  offset="0" style="stop-color:#FF9085"/>
						<stop  offset="1" style="stop-color:#FB6FBB"/>
					</linearGradient>
					<path class="st79" d="M2579.6,2103.7c14.4-35.3,45.4-55.6,61.5-66.1c8-5.3,15.5-9.2,23-12.3c58.2-23.8,116.3-22.1,126.7-21.3
						c25.1,1.9,87.2,6.5,133.2,46.4c22.3,19.3,40.1,46.2,66,198c36.2,211.7,6.8,190,35.4,275.8c15.1,45.4,38.6,97.5,13.7,130.8
						c-8,10.7-19.5,13.8-42.9,24.4c-87.4,39.3-165.8,32.6-213.5,27.8c-52.4-5.2-78.9-8.2-92.8-26.7c-22.2-29.6,0.7-67.2,4.6-132.3
						c2.9-46.7-7.8-83.7-29-157.8C2616.1,2218.1,2551.9,2171.3,2579.6,2103.7z"/>
					<linearGradient id="SVGID_71_" gradientUnits="userSpaceOnUse" x1="2277.4924" y1="2305.2026" x2="2270.4556" y2="2337.3269">
						<stop  offset="0" style="stop-color:#FFC444"/>
						<stop  offset="0.9964" style="stop-color:#F36F56"/>
					</linearGradient>
					<path class="st80" d="M2333.2,2314.5l-55.9-10.7c-4-0.8-8.1-0.8-12.2-0.1l-48.3,8.3c0,0,31.4,12.6,58.1,8.7
						c26.7-4,55.9,11.1,55.9,11.1L2333.2,2314.5z"/>
					<linearGradient id="SVGID_72_" gradientUnits="userSpaceOnUse" x1="2562.1497" y1="2300.9487" x2="2870.762" y2="2595.6382">
						<stop  offset="0" style="stop-color:#FF9085"/>
						<stop  offset="1" style="stop-color:#FB6FBB"/>
					</linearGradient>
					<path class="st81" d="M2827.9,2645.5c-15.4-30.7,22.4-71.5-2.3-118.3c-21-39.8-59.1-30.9-76.6-67.3
						c-21.2-44,24.9-76.9,23.2-143.9c-2-80-70.8-160.2-111.4-153.1c-26.2,4.5-29.6,43.7-48,86.5c16.3,35.8,35.4,80.7,52.7,140.9
						c21.2,74,31.9,111.1,29,157.8c-4,65.1-26.8,102.7-4.6,132.3c13.9,18.5,40.4,21.5,92.8,26.7c47.6,4.7,126,11.5,213.5-27.8
						c11.1-5,19.4-8.7,26.1-12.4C2885.6,2687.3,2840.1,2669.8,2827.9,2645.5z"/>
					<linearGradient id="SVGID_73_" gradientUnits="userSpaceOnUse" x1="2576.0244" y1="2266.3801" x2="2926.1177" y2="2600.6794">
						<stop  offset="0" style="stop-color:#FF9085"/>
						<stop  offset="1" style="stop-color:#FB6FBB"/>
					</linearGradient>
					<path class="st82" d="M2319,2330.8c1.6-7.1,3.2-14.3,4.8-21.4c107.3,19.2,154.3-2.4,177-27.6c20.8-23.2,11.9-35.1,45.2-123.6
						c31.7-84.2,67.7-105.9,85.9-113.7c10.1-4.4,17.1-7.3,25.5-5.2c38.7,9.5,51.5,110.2,40.6,185.6c-6.1,42.5-18.1,125.8-86.4,165.3
						c-1.3,0.7-3.2,1.9-5.9,3.3c-8.6,4.6-42.8,21-110.1,8.9C2416.1,2388.1,2338.6,2342.6,2319,2330.8z"/>
					<g>
						<g>
							
								<linearGradient id="SVGID_74_" gradientUnits="userSpaceOnUse" x1="6330.5239" y1="2149.7439" x2="6523.0454" y2="2391.9602" gradientTransform="matrix(0.9729 -0.2313 0.2313 0.9729 -4110.1006 1335.2491)">
								<stop  offset="0" style="stop-color:#FFC444"/>
								<stop  offset="0.9964" style="stop-color:#F36F56"/>
							</linearGradient>
							<path class="st83" d="M2604.8,2036.4c-15-8-15.6-38.8-15.8-50.9c0-0.4,0-1,0-2.1c0-17.9,1-20.9,3.3-25.2l3.3-5.8
								c0,0,0.2-0.3,0.5-0.5c2.6-2.9,13.3-9.1,15.8-9.8c7.9-2.3,30.9,22.4,50.7,64.3c1.1,1.4,2.3,2.8,3.4,4.2
								c4.6,5.8,8.8,11.6,12.8,17.4c3.8,5.5,12.1,0.9,17.8-2.7c23.2-14.5,36-18.7,39-15.7c5.5,5.7-11.2,42.9-43.7,66.8
								c-47,25.8-88.1,41.4-88,31.8c0.1-4.3,31.5-33.5,36.7-48.5c4.7-13.7-0.8-22.3-3.5-29.1
								C2632.3,2033.5,2616.3,2042.5,2604.8,2036.4z"/>
							<path class="st15" d="M2574.7,1948.8c0.7,10.6,19.4,22.8,24.2,23.4c0.5,0.1,3.7,0.6,7.3,2.5c0.5,0.3,1,0.6,1.5,1.1
								c7,6.5-0.6,22.6,3.8,24.8c3.2,1.6,9.9-6.4,12.1-4.8c2.1,1.6-2.7,9.8-0.3,11.7c1.8,1.5,5.3-2.6,9.6-1.2
								c3.3,1.1,5.3,4.1,6.2,5.7c7,12-4.8,72,7.3,87c22.1,27.1,174.4-31.4,170.2-81.4c-2.5-29.7-58.8-40.1-122.5-82
								c-5.6-3.7-21.9-12.5-44.9-18.6c-4.7-1.3-10.2-1.9-16.9-1.7C2603.2,1916.5,2573.8,1934.8,2574.7,1948.8z"/>
							
								<linearGradient id="SVGID_75_" gradientUnits="userSpaceOnUse" x1="6339.7388" y1="2137.5544" x2="6554.6899" y2="2407.9902" gradientTransform="matrix(0.9729 -0.2313 0.2313 0.9729 -4110.1006 1335.2491)">
								<stop  offset="0" style="stop-color:#FFC444"/>
								<stop  offset="0.9964" style="stop-color:#F36F56"/>
							</linearGradient>
							<path class="st84" d="M2614.4,1995.2c0.8-5.9,8.4-4.8,11.4,0.6c3,5.5,0.7,14.1-5,15.7
								C2615,2013.3,2613.3,2003.2,2614.4,1995.2z"/>
						</g>
					</g>
				</g>
				<g>
					<linearGradient id="SVGID_76_" gradientUnits="userSpaceOnUse" x1="2774.7737" y1="3030.7742" x2="2816.6294" y2="3126.9075">
						<stop  offset="0" style="stop-color:#AA80F9"/>
						<stop  offset="0.9964" style="stop-color:#6165D7"/>
					</linearGradient>
					<path class="st85" d="M3050.5,3129.2c0,52.9-105,95.7-234.5,95.7c-129.5,0-234.9-42.9-234.9-95.7c0-3.3,0-9.5,0-12.7
						c-0.2-49.7,113.4-83,234.8-83c123.2,0,225,32.2,234.5,81.5C3051,3117.5,3050.5,3126.6,3050.5,3129.2z"/>
					<linearGradient id="SVGID_77_" gradientUnits="userSpaceOnUse" x1="2806.9324" y1="3202.4197" x2="2846.3352" y2="2835.5259">
						<stop  offset="0" style="stop-color:#AA80F9"/>
						<stop  offset="0.9964" style="stop-color:#6165D7"/>
					</linearGradient>
					<path class="st86" d="M3050.5,3118c0,49.9-105,90.4-234.5,90.4c-129.5,0-234.5-40.5-234.5-90.4c0-49.9,105-131.6,234.5-131.6
						C2945.5,2986.4,3050.5,3068.1,3050.5,3118z"/>
					
						<linearGradient id="SVGID_78_" gradientUnits="userSpaceOnUse" x1="2730.7334" y1="3074.355" x2="3124.8669" y2="3074.355" gradientTransform="matrix(1 0 0 1 -74.3293 0)">
						<stop  offset="0" style="stop-color:#AA80F9"/>
						<stop  offset="0.9964" style="stop-color:#6165D7"/>
					</linearGradient>
					<path class="st87" d="M3050.5,3118c0-49.9-105-131.6-234.5-131.6c-59.8,0-114.4,17.4-155.8,41.1c-2.9,6.1-4.3,12.1-3.7,17.9
						c2.7,28.1,48.5,45.3,74.8,51c66.2,14.3,98.5-25.2,153.1-23.7c33.7,0.9,80.5,17.9,136,89.7
						C3039.5,3149.2,3050.5,3134.1,3050.5,3118z"/>
					
						<linearGradient id="SVGID_79_" gradientUnits="userSpaceOnUse" x1="2832.1238" y1="2805.8696" x2="3064.6907" y2="3125.8953" gradientTransform="matrix(1 0 0 1 -74.3293 0)">
						<stop  offset="0" style="stop-color:#AA80F9"/>
						<stop  offset="0.9964" style="stop-color:#6165D7"/>
					</linearGradient>
					<path class="st88" d="M2828.9,3031.7c-9.4,2.3-18.1,2.2-26.3,0.1c-7.5-1.9-12.6-8.8-12.6-16.5l0-264.5h52.2v264.1
						C2842.1,3023,2836.6,3029.8,2828.9,3031.7z"/>
					<g>
						
							<linearGradient id="SVGID_80_" gradientUnits="userSpaceOnUse" x1="3149.2271" y1="2836.7456" x2="3053.6118" y2="2712.156" gradientTransform="matrix(1 0 0 1 -74.3293 0)">
							<stop  offset="0" style="stop-color:#311944"/>
							<stop  offset="1" style="stop-color:#893976"/>
						</linearGradient>
						<path class="st89" d="M2540.4,2639.6l79.7-50.4c3.3-18.8,40.9-215.6,193.3-277.4c62-25.1,128.7-22.2,165.3-20.5
							c73.1,3.3,125.2,5.6,150.3,40.5c32.2,44.8-21.8,85.4-10.6,213.4c4.6,52.2,16.2,75.4,1.7,110c-17.3,41.4-57.4,64.4-88.6,77.3
							c-37.3,21.7-102.2,52.5-188,60c-144.5,12.7-252.3-49.3-289.4-73c-16.5-5.2-28.9-18.9-32.4-35.9
							C2518.2,2666.6,2525.6,2649,2540.4,2639.6z"/>
					</g>
					<path class="st68" d="M2577.1,2675.5c2.9-17.7,52.3-3,99-37.7c69.8-51.8,33.6-139.7,94.3-223.9
						c55.7-77.3,167.9-116.7,202.7-87.2c46.3,39.2-67.1,185.9,0,280.5c32.6,46,82.2,43.8,82.5,70.7c0.4,42.6-123.2,91.7-240.4,89.6
						C2689.1,2765.1,2572.4,2703.6,2577.1,2675.5z"/>
				</g>
			</g>
		</g>
	</g>
</svg>
